<svg width="48" height="48" viewBox="0 0 48 48" fill="none" xmlns="http://www.w3.org/2000/svg">
<rect width="48" height="48" fill="url(#paint0_linear_221_2540)"/>
<path d="M27.2559 36.8357C33.5304 36.4187 38.5284 31.3498 38.9397 24.9864C39.0201 23.7411 39.0201 22.4514 38.9397 21.2061C38.5284 14.8426 33.5304 9.7737 27.2559 9.35661C25.1152 9.21432 22.8804 9.21462 20.7441 9.35661C14.4696 9.7737 9.47161 14.8426 9.06036 21.2061C8.97988 22.4514 8.97988 23.7411 9.06036 24.9864C9.21015 27.304 10.2351 29.4499 11.4419 31.2619C12.1425 32.5305 11.6801 34.1137 10.9503 35.4967C10.4241 36.4939 10.161 36.9925 10.3723 37.3526C10.5835 37.7128 11.0554 37.7243 11.9991 37.7473C13.8655 37.7927 15.124 37.2636 16.123 36.5269C16.6896 36.1092 16.9729 35.9002 17.1682 35.8762C17.3634 35.8522 17.7477 36.0105 18.516 36.327C19.2066 36.6114 20.0084 36.7868 20.7441 36.8357C22.8804 36.9778 25.1152 36.9781 27.2559 36.8357Z" stroke="white" stroke-width="2.25" stroke-linejoin="round"/>
<path d="M23.9929 23.5H24.0063M29.9862 23.5H29.9997M17.9996 23.5H18.0131" stroke="white" stroke-width="3" stroke-linecap="round" stroke-linejoin="round"/>
<defs>
<linearGradient id="paint0_linear_221_2540" x1="24" y1="0" x2="24" y2="48" gradientUnits="userSpaceOnUse">
<stop stop-color="#0D9488"/>
<stop offset="1" stop-color="#0F766E"/>
</linearGradient>
</defs>
</svg>
