<?xml version="1.0" encoding="UTF-8"?>
<svg width="606px" height="606px" viewBox="0 0 606 606" version="1.1" xmlns="http://www.w3.org/2000/svg" xmlns:xlink="http://www.w3.org/1999/xlink">
    <!-- Generator: Sketch 44.1 (41455) - http://www.bohemiancoding.com/sketch -->
    <title>jot.me</title>
    <desc>Created with Sketch.</desc>
    <defs>
        <linearGradient x1="50%" y1="0%" x2="50%" y2="100%" id="linearGradient-1">
            <stop stop-color="#FFFFFF" stop-opacity="0.2" offset="0%"></stop>
            <stop stop-color="#000000" stop-opacity="0.2" offset="100%"></stop>
        </linearGradient>
    </defs>
    <g id="Page-1" stroke="none" stroke-width="1" fill="none" fill-rule="evenodd">
        <g id="jot.me" transform="translate(3.000000, 3.000000)">
            <g id="Squircle2-Copy-6">
                <g id="Shape">
                    <g id="path-2-link" fill-rule="nonzero" fill="#FFFFFF">
                        <path d="M552.268958,552.268958 C600,504.537813 600,431.458333 600,300 C600,168.541667 600,95.4621875 552.268958,47.7310417 C504.537813,0 431.458333,0 300,0 C168.541667,0 95.4621875,0 47.7310417,47.7310417 C0,95.4621875 0,168.541667 0,300 C0,431.458333 0,504.537813 47.7310417,552.268958 C95.4621875,600 168.541667,600 300,600 C431.458333,600 504.537813,600 552.268958,552.268958 Z" id="path-2"></path>
                    </g>
                    <g id="path-2-link">
                        <g id="Final-Copy-5" transform="translate(300.000000, 300.000000) scale(-1, 1) rotate(-270.000000) translate(-300.000000, -300.000000) translate(100.000000, 100.000000)">
                            <path d="M316.22457,316.580264 C316.316542,316.366113 316.388206,316.198373 316.449908,316.026646 C325.330354,291.406819 330.765801,266.082456 332.01177,239.905998 C332.255495,234.697963 332.277335,229.481911 332.077231,224.272017 C331.995128,222.039702 331.884177,219.796291 331.805403,217.562864 C331.690015,214.118973 331.141922,210.690615 330.836809,207.247833 C330.487315,203.27471 329.816068,199.350405 329.108206,195.433866 C327.544919,186.776428 325.381392,178.277651 322.412367,169.98302 C320.912322,165.789107 319.325735,161.637354 317.523905,157.565485 C312.524493,146.153157 306.185913,135.84922 298.703439,126.256474 C296.098331,122.914656 293.344549,119.683789 290.505335,116.542793 C284.410951,109.799469 277.555029,103.785737 270.074982,98.6221313 C250.080664,84.8254848 227.925037,77.4661647 203.644716,76.5585932 C193.431676,76.1746266 183.211039,77.0823579 173.225524,79.2602279 C154.557059,83.3187827 137.702629,91.2217585 122.693298,103.060135 C120.862622,104.502487 119.228326,106.187819 117.230115,107.416036 L105.648033,118.998118 C105.814458,119.41529 105.439446,119.577278 105.246394,119.810272 C102.527007,123.055564 99.8985981,126.362986 97.5131715,129.864572 C80.0773622,155.448557 72.9743356,183.674264 76.3616433,214.406334 C79.1453808,239.681879 89.0465684,261.969536 105.65358,281.252664 C113.652697,290.555975 122.988435,298.620426 133.355604,305.182384 C141.080239,310.095366 149.352099,314.089615 158.00317,317.084001 C158.749864,317.33142 159.49323,317.582167 160.244362,317.825148 C174.109797,322.350802 188.311411,324.538739 202.916883,324.088281 C210.605725,323.850848 218.212464,322.985438 225.710473,321.31231 C241.299175,317.82891 255.526939,311.798924 268.334799,303.139801 L202.66789,203.023584 L316.22457,316.580264 Z M200.311388,399.927609 C90.1964099,399.927609 0.930583282,310.661782 0.930583282,200.546804 C0.930583282,90.4318254 90.1964099,1.16599876 200.311388,1.16599876 C310.426365,1.16599876 399.692193,90.4318254 399.692193,200.546804 C399.692193,310.661782 310.426365,399.927609 200.311388,399.927609 Z" id="Combined-Shape-Copy" fill="#FF7800" fill-rule="nonzero" transform="translate(200.311388, 200.546804) scale(-1, 1) translate(-200.311388, -200.546804) "></path>
                            <path d="M309.419271,316.580264 C318.525055,291.406819 323.960502,266.082456 325.206471,239.905998 C325.450196,234.697963 325.472036,229.481911 325.271932,224.272017 C325.189829,222.039702 325.078878,219.796291 325.000104,217.562864 C324.884716,214.118973 324.336623,210.690615 324.03151,207.247833 C323.682016,203.27471 323.010769,199.350405 322.302907,195.433866 C320.73962,186.776428 318.576093,178.277651 315.607068,169.98302 C314.107023,165.789107 312.520436,161.637354 310.718606,157.565485 C305.719194,146.153157 299.380615,135.84922 291.89814,126.256474 C289.293032,122.914656 286.53925,119.683789 283.700036,116.542793 C277.605652,109.799469 270.74973,103.785737 263.269683,98.6221313 C243.275365,84.8254848 221.119738,77.4661647 196.839417,76.5585932 C186.626377,76.1746266 176.40574,77.0823579 166.420226,79.2602279 C147.75176,83.3187827 130.89733,91.2217585 115.887999,103.060135 C114.057323,104.502487 112.423027,106.187819 110.424816,107.416036 L98.8427347,118.998118 C99.0091594,119.41529 98.6341477,119.577278 98.4410951,119.810272 C95.7217081,123.055564 93.0932994,126.362986 90.7078728,129.864572 C73.2720635,155.448557 66.1690368,183.674264 69.5563446,214.406334 C72.340082,239.681879 82.2412697,261.969536 98.8482814,281.252664 C106.847398,290.555975 116.183136,298.620426 126.550305,305.182384 C134.27494,310.095366 142.5468,314.089615 151.197872,317.084001 C151.944565,317.33142 152.687931,317.582167 153.439063,317.825148 C167.304498,322.350802 181.506112,324.538739 196.111584,324.088281 C203.800426,323.850848 211.407166,322.985438 218.905174,321.31231 C234.493876,317.82891 248.72164,311.798924 261.5295,303.139801 L195.862591,203.023584 L309.419271,316.580264 Z" id="Combined-Shape-Copy-path-Copy" fill="#FFFFFF" transform="translate(197.071306, 200.309535) scale(1, -1) rotate(-180.000000) translate(-197.071306, -200.309535) "></path>
                        </g>
                        <path d="M552.268958,552.268958 C600,504.537813 600,431.458333 600,300 C600,168.541667 600,95.4621875 552.268958,47.7310417 C504.537813,0 431.458333,0 300,0 C168.541667,0 95.4621875,0 47.7310417,47.7310417 C0,95.4621875 0,168.541667 0,300 C0,431.458333 0,504.537813 47.7310417,552.268958 C95.4621875,600 168.541667,600 300,600 C431.458333,600 504.537813,600 552.268958,552.268958 Z" id="path-2" stroke="#000000" stroke-width="4.04" fill="url(#linearGradient-1)" fill-rule="nonzero"></path>
                    </g>
                </g>
            </g>
        </g>
    </g>
</svg>