<svg width="72" height="72" viewBox="0 0 72 72" fill="none" xmlns="http://www.w3.org/2000/svg">
<rect width="72" height="72" fill="url(#paint0_linear_116_80)"/>
<path d="M36 34H36.02M44 34H44.02M28 34H28.02M56 46C56 47.0609 55.5786 48.0783 54.8284 48.8284C54.0783 49.5786 53.0609 50 52 50H25.656C24.5952 50.0002 23.578 50.4218 22.828 51.172L18.424 55.576C18.2254 55.7746 17.9724 55.9098 17.697 55.9645C17.4215 56.0193 17.1361 55.9912 16.8766 55.8837C16.6172 55.7763 16.3954 55.5943 16.2394 55.3608C16.0833 55.1273 16 54.8528 16 54.572V22C16 20.9391 16.4214 19.9217 17.1716 19.1716C17.9217 18.4214 18.9391 18 20 18H52C53.0609 18 54.0783 18.4214 54.8284 19.1716C55.5786 19.9217 56 20.9391 56 22V46Z" stroke="url(#paint1_linear_116_80)" stroke-width="4" stroke-linecap="round" stroke-linejoin="round"/>
<path d="M36 35H36.02M44 35H44.02M28 35H28.02M56 47C56 48.0609 55.5786 49.0783 54.8284 49.8284C54.0783 50.5786 53.0609 51 52 51H25.656C24.5952 51.0002 23.578 51.4218 22.828 52.172L18.424 56.576C18.2254 56.7746 17.9724 56.9098 17.697 56.9645C17.4215 57.0193 17.1361 56.9912 16.8766 56.8837C16.6172 56.7763 16.3954 56.5943 16.2394 56.3608C16.0833 56.1273 16 55.8528 16 55.572V23C16 21.9391 16.4214 20.9217 17.1716 20.1716C17.9217 19.4214 18.9391 19 20 19H52C53.0609 19 54.0783 19.4214 54.8284 20.1716C55.5786 20.9217 56 21.9391 56 23V47Z" stroke="black" stroke-opacity="0.2" stroke-width="4" stroke-linecap="round" stroke-linejoin="round"/>
<defs>
<linearGradient id="paint0_linear_116_80" x1="36" y1="0" x2="36" y2="72" gradientUnits="userSpaceOnUse">
<stop stop-color="#0D9488"/>
<stop offset="1" stop-color="#115E59"/>
</linearGradient>
<linearGradient id="paint1_linear_116_80" x1="36" y1="18" x2="36" y2="55.9918" gradientUnits="userSpaceOnUse">
<stop stop-color="white"/>
<stop offset="1" stop-color="white" stop-opacity="0.6"/>
</linearGradient>
</defs>
</svg>
