<svg width="320" height="320" viewBox="0 0 320 320" fill="none" xmlns="http://www.w3.org/2000/svg">
<g clip-path="url(#clip0_1014_7208)">
<path d="M160 0C281.326 0 320 38.6737 320 160C320 281.326 281.326 320 160 320C38.6736 320 0 281.326 0 160C0 38.6737 38.6736 0 160 0Z" fill="url(#paint0_linear_1014_7208)"/>
<path d="M160 2C220.573 2 259.85 11.6833 284.083 35.9168C308.317 60.1504 318 99.4272 318 160C318 220.573 308.317 259.85 284.083 284.083C259.85 308.317 220.573 318 160 318C99.4272 318 60.1504 308.317 35.9168 284.083C11.6833 259.85 2 220.573 2 160C2 99.4272 11.6833 60.1504 35.9168 35.9168C60.1504 11.6833 99.4272 2 160 2Z" stroke="#F8FAFC" stroke-opacity="0.2" stroke-width="4"/>
<g clip-path="url(#clip1_1014_7208)">
<path fill-rule="evenodd" clip-rule="evenodd" d="M160 60C243.412 60 270 81.7539 270 150C270 218.246 243.412 240 160 240C156.93 240 153.937 239.971 151.019 239.91C145.402 239.795 139.942 241.887 135.969 245.86L114.543 267.286C109.1 272.729 99.805 270.239 97.8126 262.803L91.4431 239.032C89.8624 233.132 85.5608 228.448 80.3448 225.271C58.3433 211.871 50 188.23 50 150C50 81.7539 76.5881 60 160 60ZM160 130C148.954 130 140 138.954 140 150C140 161.046 148.954 170 160 170C171.046 170 180 161.046 180 150C180 138.954 171.046 130 160 130ZM200 150C200 138.954 208.954 130 220 130C231.046 130 240 138.954 240 150C240 161.046 231.046 170 220 170C208.954 170 200 161.046 200 150ZM100 130C88.9543 130 80 138.954 80 150C80 161.046 88.9543 170 100 170C111.046 170 120 161.046 120 150C120 138.954 111.046 130 100 130Z" fill="url(#paint1_linear_1014_7208)"/>
</g>
</g>
<defs>
<linearGradient id="paint0_linear_1014_7208" x1="160" y1="0" x2="160" y2="320" gradientUnits="userSpaceOnUse">
<stop stop-color="#475569"/>
<stop offset="1" stop-color="#1E293B"/>
</linearGradient>
<linearGradient id="paint1_linear_1014_7208" x1="160" y1="60" x2="160" y2="270.221" gradientUnits="userSpaceOnUse">
<stop stop-color="#FB923C"/>
<stop offset="1" stop-color="#EA580C"/>
</linearGradient>
<clipPath id="clip0_1014_7208">
<rect width="320" height="320" fill="white"/>
</clipPath>
<clipPath id="clip1_1014_7208">
<rect width="240" height="240" fill="white" transform="translate(40 40)"/>
</clipPath>
</defs>
</svg>
