<?xml version="1.0" encoding="UTF-8" standalone="no"?>
<!DOCTYPE svg PUBLIC "-//W3C//DTD SVG 1.1//EN" "http://www.w3.org/Graphics/SVG/1.1/DTD/svg11.dtd">
<svg width="100%" height="100%" viewBox="0 0 64 64" version="1.1" xmlns="http://www.w3.org/2000/svg" xmlns:xlink="http://www.w3.org/1999/xlink" xml:space="preserve" xmlns:serif="http://www.serif.com/" style="fill-rule:evenodd;clip-rule:evenodd;stroke-linejoin:round;stroke-miterlimit:2;">
    <g id="discussions">
        <path id="Path" d="M32,64C46.022,64 53.817,64 58.909,58.909C64,53.817 64,46.022 64,32C64,17.978 64,10.183 58.909,5.091C53.817,0 46.022,0 32,0C17.978,0 10.183,0 5.091,5.091C0,10.183 0,17.978 0,32C0,46.022 0,53.817 5.091,58.909C10.183,64 17.978,64 32,64Z" style="fill:rgb(0,179,86);"/>
        <g id="comment-alt-dots" transform="matrix(0.0800781,0,0,0.0800781,32,32)">
            <g transform="matrix(1,0,0,1,-256,-256)">
                <clipPath id="_clip1">
                    <rect x="0" y="0" width="512" height="512"/>
                </clipPath>
                <g clip-path="url(#_clip1)">
                    <path d="M448,0L64,0C28.903,0.033 0.033,28.903 0,64L0,352C0.033,387.097 28.903,415.967 64,416L160,416L160,500C160,500.009 160,500.017 160,500.026C160,506.609 165.417,512.026 172,512.026C174.553,512.026 177.041,511.211 179.1,509.7L304,416L448,416C483.097,415.967 511.967,387.097 512,352L512,64C511.967,28.903 483.097,0.033 448,0ZM128,240C110.445,240 96,225.555 96,208C96,190.445 110.445,176 128,176C145.555,176 160,190.445 160,208C160,225.555 145.555,240 128,240ZM256,240C238.445,240 224,225.555 224,208C224,190.445 238.445,176 256,176C273.555,176 288,190.445 288,208C288,225.555 273.555,240 256,240ZM384,240C366.445,240 352,225.555 352,208C352,190.445 366.445,176 384,176C401.555,176 416,190.445 416,208C416,225.555 401.555,240 384,240Z" style="fill:white;fill-opacity:0.5;fill-rule:nonzero;"/>
                    <path d="M448,0L64,0C28.903,0.033 0.033,28.903 0,64L0,352C0.033,387.097 28.903,415.967 64,416L160,416L512,64C511.967,28.903 483.097,0.033 448,0ZM128,240C110.445,240 96,225.555 96,208C96,190.445 110.445,176 128,176C145.555,176 160,190.445 160,208C160,225.555 145.555,240 128,240ZM256,240C238.445,240 224,225.555 224,208C224,190.445 238.445,176 256,176C273.555,176 288,190.445 288,208C288,225.555 273.555,240 256,240ZM384,240C366.445,240 352,225.555 352,208C352,190.445 366.445,176 384,176C401.555,176 416,190.445 416,208C416,225.555 401.555,240 384,240Z" style="fill:white;fill-opacity:0.2;fill-rule:nonzero;"/>
                    <path d="M448,0L64,0C28.903,0.033 0.033,28.903 0,64L0,267.247L512,64C511.967,28.903 483.097,0.033 448,0ZM128,240C110.445,240 96,225.555 96,208C96,190.445 110.445,176 128,176C145.555,176 160,190.445 160,208C160,225.555 145.555,240 128,240ZM256,240C238.445,240 224,225.555 224,208C224,190.445 238.445,176 256,176C273.555,176 288,190.445 288,208C288,225.555 273.555,240 256,240ZM384,240C366.445,240 352,225.555 352,208C352,190.445 366.445,176 384,176C401.555,176 416,190.445 416,208C416,225.555 401.555,240 384,240Z" style="fill:white;fill-opacity:0.2;fill-rule:nonzero;"/>
                    <path d="M384,176C366.445,176 352,190.445 352,208C352,225.555 366.445,240 384,240C401.555,240 416,225.555 416,208C416,190.445 401.555,176 384,176ZM256,176C238.445,176 224,190.445 224,208C224,225.555 238.445,240 256,240C273.555,240 288,225.555 288,208C288,190.445 273.555,176 256,176ZM128,176C110.445,176 96,190.445 96,208C96,225.555 110.445,240 128,240C145.555,240 160,225.555 160,208C160,190.445 145.555,176 128,176Z" style="fill:white;fill-rule:nonzero;"/>
                </g>
            </g>
        </g>
    </g>
</svg>
